<svg width="64" height="64" viewBox="0 0 64 64" fill="none" xmlns="http://www.w3.org/2000/svg">
<g clip-path="url(#clip0_1_1308)">
<path d="M46.6758 6H17.3242C11.07 6 6 11.07 6 17.3242V46.6758C6 52.93 11.07 58 17.3242 58H46.6758C52.93 58 58 52.93 58 46.6758V17.3242C58 11.07 52.93 6 46.6758 6Z" fill="#00F0FF"/>
<path d="M29.9975 26.497H39.7067L49.6392 36.3661C50.2853 37.008 50.2887 38.0523 49.6459 38.6975L36.9079 51.4998H26.9061L29.9299 48.5601L41.0319 37.5282L30.0708 26.4961" fill="#1B1B1B"/>
<path d="M33.988 37.5037H24.2788L14.3463 27.6345C13.7002 26.9925 13.6969 25.9484 14.3397 25.3031L27.0776 12.5H37.0794L34.0556 15.4397L22.9536 26.4716L33.9147 37.5037" fill="#1B1B1B"/>
</g>
<defs>
<clipPath id="clip0_1_1308">
<rect width="52" height="52" fill="white" transform="translate(6 6)"/>
</clipPath>
</defs>
</svg>
