<svg width="64" height="64" viewBox="0 0 64 64" fill="none" xmlns="http://www.w3.org/2000/svg">
<g clip-path="url(#clip0_1_1285)">
<path d="M8.53498 24.5898L5.93498 27.1898C5.15498 27.8398 4.63498 28.7498 4.24498 29.6598C3.85498 30.5698 3.72498 31.4798 3.72498 32.5198C3.72498 33.5598 3.98498 34.4698 4.37498 35.3798C4.76498 36.2898 5.28498 37.0698 6.06498 37.8498L26.865 58.7798C27.385 59.2998 27.905 59.6898 28.555 59.9498V34.5998L8.53498 24.5898Z" fill="#3D89F5"/>
<path d="M55.335 24.5898L57.935 27.1898C58.715 27.8398 59.235 28.7498 59.625 29.6598C60.015 30.5698 60.275 31.6098 60.275 32.5198C60.275 33.5598 60.015 34.4698 59.625 35.3798C59.235 36.2898 58.715 37.0698 57.935 37.8498L37.135 58.6498C36.615 59.1698 36.095 59.5598 35.445 59.8198V34.5998L55.335 24.5898Z" fill="#1656B9"/>
<path d="M50.395 19.2598L37.395 6.2598C36.745 5.4798 35.835 4.9598 34.925 4.5698C34.015 4.1798 33.105 4.0498 32.065 4.0498C31.025 4.0498 30.115 4.3098 29.205 4.6998C28.295 5.0898 27.515 5.6098 26.735 6.3898L13.735 19.3898L31.935 28.4898L50.395 19.2598Z" fill="#85B5F8"/>
</g>
<defs>
<clipPath id="clip0_1_1285">
<rect width="56.55" height="55.9" fill="white" transform="translate(3.72498 4.0498)"/>
</clipPath>
</defs>
</svg>
