<svg width="16" height="16" viewBox="0 0 16 16" fill="none" xmlns="http://www.w3.org/2000/svg">
<path d="M8 11.9997V3.33301" stroke="currentColor" stroke-width="1.33333" stroke-linecap="round" stroke-linejoin="round"/>
<path d="M10 8.66667C9.4232 8.49806 8.91656 8.14708 8.556 7.66633C8.19544 7.18558 8.00036 6.60094 8 6C7.99964 6.60094 7.80456 7.18558 7.444 7.66633C7.08344 8.14708 6.5768 8.49806 6 8.66667" stroke="currentColor" stroke-width="1.33333" stroke-linecap="round" stroke-linejoin="round"/>
<path d="M11.732 4.3331C11.8854 4.06742 11.9756 3.77002 11.9957 3.46389C12.0158 3.15777 11.9652 2.85113 11.8478 2.56769C11.7304 2.28426 11.5494 2.03163 11.3187 1.82935C11.0881 1.62707 10.814 1.48056 10.5176 1.40116C10.2213 1.32176 9.91069 1.31159 9.6098 1.37144C9.30891 1.43129 9.02583 1.55956 8.78244 1.74633C8.53906 1.93309 8.3419 2.17334 8.20623 2.44849C8.07055 2.72364 7.99999 3.02631 8 3.3331C8.00001 3.02631 7.92945 2.72364 7.79377 2.44849C7.6581 2.17334 7.46094 1.93309 7.21756 1.74633C6.97417 1.55956 6.69109 1.43129 6.3902 1.37144C6.08931 1.31159 5.77868 1.32176 5.48236 1.40116C5.18603 1.48056 4.91193 1.62707 4.68129 1.82935C4.45064 2.03163 4.26961 2.28426 4.15222 2.56769C4.03483 2.85113 3.98421 3.15777 4.00429 3.46389C4.02436 3.77002 4.11459 4.06742 4.268 4.3331" stroke="currentColor" stroke-width="1.33333" stroke-linecap="round" stroke-linejoin="round"/>
<path d="M11.9979 3.41699C12.3898 3.51775 12.7536 3.70636 13.0618 3.96853C13.37 4.23071 13.6144 4.55957 13.7767 4.93022C13.939 5.30087 14.0148 5.70359 13.9983 6.10787C13.9819 6.51215 13.8737 6.90739 13.6819 7.26366" stroke="currentColor" stroke-width="1.33333" stroke-linecap="round" stroke-linejoin="round"/>
<path d="M12 11.9994C12.587 11.9994 13.1576 11.8057 13.6233 11.4483C14.089 11.091 14.4238 10.59 14.5757 10.023C14.7276 9.45596 14.6882 8.85467 14.4636 8.31235C14.239 7.77002 13.8417 7.31696 13.3333 7.02344" stroke="currentColor" stroke-width="1.33333" stroke-linecap="round" stroke-linejoin="round"/>
<path d="M13.3113 11.6553C13.358 12.0168 13.3301 12.384 13.2294 12.7343C13.1286 13.0846 12.9571 13.4105 12.7254 13.6919C12.4938 13.9733 12.2069 14.2043 11.8825 14.3704C11.5581 14.5366 11.203 14.6346 10.8393 14.6582C10.4756 14.6818 10.1109 14.6306 9.7677 14.5077C9.42454 14.3848 9.1102 14.1929 8.84412 13.9438C8.57803 13.6947 8.36584 13.3937 8.22065 13.0593C8.07546 12.725 8.00035 12.3644 7.99996 11.9999C7.99957 12.3644 7.92446 12.725 7.77927 13.0593C7.63407 13.3937 7.42188 13.6947 7.1558 13.9438C6.88971 14.1929 6.57538 14.3848 6.23222 14.5077C5.88905 14.6306 5.52434 14.6818 5.16061 14.6582C4.79688 14.6346 4.44184 14.5366 4.11744 14.3704C3.79303 14.2043 3.50614 13.9733 3.27448 13.6919C3.04282 13.4105 2.87131 13.0846 2.77055 12.7343C2.66978 12.384 2.6419 12.0168 2.68862 11.6553" stroke="currentColor" stroke-width="1.33333" stroke-linecap="round" stroke-linejoin="round"/>
<path d="M3.99992 11.9994C3.41292 11.9994 2.84233 11.8057 2.37663 11.4483C1.91094 11.091 1.57617 10.59 1.42424 10.023C1.27231 9.45596 1.31171 8.85467 1.53634 8.31235C1.76096 7.77002 2.15825 7.31696 2.66659 7.02344" stroke="currentColor" stroke-width="1.33333" stroke-linecap="round" stroke-linejoin="round"/>
<path d="M4.00199 3.41699C3.61013 3.51775 3.24633 3.70636 2.93815 3.96853C2.62997 4.23071 2.38549 4.55957 2.22322 4.93022C2.06096 5.30087 1.98517 5.70359 2.00159 6.10787C2.01801 6.51215 2.12621 6.90739 2.31799 7.26366" stroke="currentColor" stroke-width="1.33333" stroke-linecap="round" stroke-linejoin="round"/>
</svg>
