<svg width="16" height="16" viewBox="0 0 16 16" fill="none" xmlns="http://www.w3.org/2000/svg">
<g clip-path="url(#clip0_1_1385)">
<path d="M5.33331 9.33301C7.54245 9.33301 9.33331 7.54215 9.33331 5.33301C9.33331 3.12387 7.54245 1.33301 5.33331 1.33301C3.12417 1.33301 1.33331 3.12387 1.33331 5.33301C1.33331 7.54215 3.12417 9.33301 5.33331 9.33301Z" stroke="#2D5F5D" stroke-width="1.33333" stroke-linecap="round" stroke-linejoin="round"/>
<path d="M12.06 6.91309C12.6902 7.14804 13.251 7.53811 13.6905 8.04722C14.13 8.55633 14.4341 9.16805 14.5745 9.8258C14.715 10.4835 14.6873 11.1661 14.4941 11.8103C14.3008 12.4545 13.9483 13.0396 13.469 13.5115C12.9897 13.9834 12.3992 14.3267 11.752 14.5099C11.1049 14.6931 10.422 14.7101 9.76649 14.5594C9.11101 14.4087 8.50412 14.0951 8.00192 13.6478C7.49973 13.2004 7.11846 12.6335 6.89337 11.9998" stroke="#2D5F5D" stroke-width="1.33333" stroke-linecap="round" stroke-linejoin="round"/>
<path d="M4.66669 4H5.33335V6.66667" stroke="#2D5F5D" stroke-width="1.33333" stroke-linecap="round" stroke-linejoin="round"/>
<path d="M11.14 9.25293L11.6067 9.72626L9.72668 11.6063" stroke="#2D5F5D" stroke-width="1.33333" stroke-linecap="round" stroke-linejoin="round"/>
</g>
<defs>
<clipPath id="clip0_1_1385">
<rect width="16" height="16" fill="white"/>
</clipPath>
</defs>
</svg>
