<svg width="16" height="16" viewBox="0 0 16 16" fill="none" xmlns="http://www.w3.org/2000/svg">
<path d="M8 5.33301C11.3137 5.33301 14 4.43758 14 3.33301C14 2.22844 11.3137 1.33301 8 1.33301C4.68629 1.33301 2 2.22844 2 3.33301C2 4.43758 4.68629 5.33301 8 5.33301Z" stroke="currentColor" stroke-width="1.33333" stroke-linecap="round" stroke-linejoin="round"/>
<path d="M2 3.33301V12.6663C2 13.1968 2.63214 13.7055 3.75736 14.0806C4.88258 14.4556 6.4087 14.6663 8 14.6663C9.5913 14.6663 11.1174 14.4556 12.2426 14.0806C13.3679 13.7055 14 13.1968 14 12.6663V3.33301" stroke="currentColor" stroke-width="1.33333" stroke-linecap="round" stroke-linejoin="round"/>
<path d="M2 8C2 8.53043 2.63214 9.03914 3.75736 9.41421C4.88258 9.78929 6.4087 10 8 10C9.5913 10 11.1174 9.78929 12.2426 9.41421C13.3679 9.03914 14 8.53043 14 8" stroke="currentColor" stroke-width="1.33333" stroke-linecap="round" stroke-linejoin="round"/>
</svg>
