<svg width="2176" height="1243" viewBox="0 0 2176 1243" fill="none" xmlns="http://www.w3.org/2000/svg">
<g clip-path="url(#clip0_1_644)">
<rect width="2176" height="1243" fill="url(#paint0_linear_1_644)"/>
<g clip-path="url(#clip1_1_644)">
<g filter="url(#filter0_f_1_644)">
<path d="M400 610.75C400 365.536 598.786 166.75 844 166.75C1089.21 166.75 1288 365.536 1288 610.75C1288 855.964 1089.21 1054.75 844 1054.75C598.786 1054.75 400 855.964 400 610.75Z" fill="#2D5F5D" fill-opacity="0.3"/>
</g>
<g filter="url(#filter1_f_1_644)">
<path d="M644 773C644 527.786 842.786 329 1088 329C1333.21 329 1532 527.786 1532 773C1532 1018.21 1333.21 1217 1088 1217C842.786 1217 644 1018.21 644 773Z" fill="#3A7875" fill-opacity="0.3"/>
</g>
<g filter="url(#filter2_f_1_644)">
<path d="M1088 821.5C1088 711.043 1177.54 621.5 1288 621.5C1398.46 621.5 1488 711.043 1488 821.5C1488 931.957 1398.46 1021.5 1288 1021.5C1177.54 1021.5 1088 931.957 1088 821.5Z" fill="#4A9390" fill-opacity="0.2"/>
</g>
</g>
<g opacity="0.2">
<path d="M1836.85 589.374C1738.57 526.865 1708.02 459.25 1708.02 459.25C1713.13 609.777 1868.76 690.158 1868.76 690.158C1812.61 673.584 1762.82 678.668 1762.82 678.668C1749.07 678.668 1730.63 695.935 1730.63 746.37C1730.63 796.805 1762.82 797.303 1762.82 797.303C1982.35 797.303 1964.49 928.703 1964.49 928.703C1882.81 942.745 1868.76 1083.06 1827.91 1139.19C1787.06 1195.31 1702.59 1197.86 1677.72 1197.86C1652.84 1197.86 1568.35 1195.31 1527.52 1139.19C1486.67 1083.06 1472.64 942.724 1390.94 928.703C1390.94 928.703 1373.08 797.303 1592.62 797.303C1592.62 797.303 1624.81 796.805 1624.81 746.37C1624.81 695.935 1606.36 678.668 1592.62 678.668C1592.62 678.668 1542.85 673.562 1486.67 690.158C1486.67 690.158 1642.19 609.799 1647.3 459.25C1647.3 459.25 1616.86 526.865 1518.58 589.374C1420.3 651.882 1251.81 742.454 1251.81 963.149C1251.81 1183.84 1478.49 1259.12 1677.72 1259.12C1876.95 1259.12 2103.62 1183.84 2103.62 963.149C2103.62 742.454 1935.14 651.882 1836.85 589.374Z" fill="#041919"/>
<path d="M1733.33 983.098H1730.65C1727.46 983.098 1724.54 981.302 1723.11 978.446C1721.42 975.07 1722.18 971.003 1724.97 968.471L1749.22 946.488C1752.55 943.459 1752.92 938.353 1750.02 934.891L1713.96 891.639C1711.55 888.74 1707.5 887.809 1704.06 889.346L1688.71 896.204C1686.53 897.178 1684.04 897.178 1681.85 896.204L1666.5 889.346C1663.06 887.809 1659.01 888.74 1656.61 891.639L1620.54 934.891C1617.67 938.353 1618.01 943.481 1621.35 946.488L1645.59 968.471C1648.38 971.003 1649.14 975.092 1647.45 978.446C1646.02 981.302 1643.12 983.098 1639.94 983.098H1637.26C1634.85 983.098 1632.58 984.115 1630.98 985.911L1585.71 1036.67C1582.75 1040 1582.9 1045.07 1586.04 1048.2L1594.93 1057.1C1598.05 1060.21 1603.07 1060.38 1606.41 1057.49L1638.34 1029.68C1639.81 1028.41 1641.65 1027.67 1643.6 1027.63L1658.13 1027.17C1660.16 1027.11 1662.17 1027.8 1663.75 1029.1L1673.86 1037.45C1675.38 1038.7 1677.26 1039.38 1679.21 1039.38H1685.25H1691.29C1693.24 1039.38 1695.14 1038.7 1696.64 1037.45L1706.75 1029.1C1708.33 1027.8 1710.32 1027.11 1712.38 1027.17L1726.9 1027.63C1728.85 1027.69 1730.69 1028.41 1732.16 1029.68L1764.09 1057.49C1767.43 1060.38 1772.45 1060.21 1775.57 1057.1L1784.46 1048.2C1787.62 1045.04 1787.75 1039.98 1784.79 1036.67L1739.52 985.911C1737.92 984.115 1735.65 983.098 1733.24 983.098H1733.33Z" fill="#041919"/>
<path d="M1749.39 1065.23H1621.26C1615.19 1065.23 1610.26 1070.15 1610.26 1076.22V1094.33C1610.26 1100.4 1615.19 1105.32 1621.26 1105.32H1749.39C1755.47 1105.32 1760.39 1100.4 1760.39 1094.33V1076.22C1760.39 1070.15 1755.47 1065.23 1749.39 1065.23Z" fill="#041919"/>
<path d="M1791.76 143.159H1794.51L1677.67 -485L1560.82 143.159H1563.57C1600.28 137.122 1638.47 133.92 1677.67 133.92C1716.88 133.92 1755.07 137.122 1791.78 143.159H1791.76Z" fill="#041919"/>
<path d="M2058.18 255.648L2255.59 -229.059L1861.49 158.499C1937.11 179.487 2004.26 213.024 2058.18 255.67V255.648Z" fill="#041919"/>
<path d="M2102.61 295.936C2154.71 350.374 2187.79 415.284 2194.76 485.517L2557 200.215L2102.61 295.936Z" fill="#041919"/>
<path d="M1251.9 296.801L788 200.215L1160.17 489.953C1166.13 418.4 1199.16 352.235 1251.88 296.801H1251.9Z" fill="#041919"/>
<path d="M1491.31 159.191L1089.43 -229.059L1292.06 259.737C1346.24 215.642 1414.35 180.893 1491.33 159.191H1491.31Z" fill="#041919"/>
<path d="M1265.47 623.884L1234.62 533.789C1230.79 522.624 1235.25 509.707 1244.52 505.098C1253.78 500.49 1264.5 505.856 1268.33 517.02L1292.23 586.842C1302.84 573.903 1314.4 561.505 1326.82 549.757L1290 442.179C1284.67 426.622 1290.89 408.642 1303.79 402.237C1316.69 395.811 1331.61 403.297 1336.93 418.854L1369.62 514.316C1385.01 503.108 1401.31 492.722 1418.44 483.245L1388.5 368.419C1383.5 349.227 1392.44 328.586 1408.37 322.549C1424.3 316.512 1441.43 327.287 1446.43 346.501L1475.11 456.524C1492.13 449.751 1509.75 443.801 1527.85 438.738L1514.47 315.128C1512.3 295.178 1524.08 276.722 1540.64 274.126C1557.2 271.529 1572.51 285.723 1574.67 305.672L1587.66 425.67C1607.14 422.532 1627.06 420.412 1647.32 419.33V291.911C1647.32 271.789 1660.98 255.324 1677.7 255.324C1694.41 255.324 1708.05 271.789 1708.05 291.911V419.33C1728.31 420.412 1748.23 422.532 1767.71 425.67L1780.7 305.672C1782.86 285.723 1798.17 271.529 1814.73 274.126C1831.29 276.722 1843.07 295.178 1840.9 315.128L1827.52 438.738C1845.64 443.801 1863.24 449.751 1880.26 456.524L1908.94 346.501C1913.94 327.309 1931.07 316.534 1947 322.549C1962.93 328.586 1971.87 349.227 1966.87 368.419L1936.93 483.245C1954.06 492.7 1970.36 503.108 1985.75 514.316L2018.44 418.854C2023.76 403.297 2038.68 395.833 2051.58 402.237C2064.48 408.642 2070.7 426.622 2065.37 442.179L2028.55 549.757C2040.97 561.505 2052.51 573.903 2063.14 586.842L2087.04 517.02C2090.87 505.856 2101.59 500.49 2110.85 505.098C2120.12 509.707 2124.58 522.624 2120.75 533.789L2089.9 623.884C2089.9 623.884 2089.88 623.841 2089.85 623.819C2095.92 633.404 2101.48 643.228 2106.55 653.267L2167.79 546.511C2153.57 346.804 1939.62 188.25 1677.72 188.25C1415.82 188.25 1202.8 346.111 1187.75 545.213L1249.28 652.466C1254.21 642.73 1259.65 633.188 1265.54 623.884H1265.47Z" fill="#041919"/>
</g>
</g>
<defs>
<filter id="filter0_f_1_644" x="44.8" y="-188.45" width="1598.4" height="1598.4" filterUnits="userSpaceOnUse" color-interpolation-filters="sRGB">
<feFlood flood-opacity="0" result="BackgroundImageFix"/>
<feBlend mode="normal" in="SourceGraphic" in2="BackgroundImageFix" result="shape"/>
<feGaussianBlur stdDeviation="177.6" result="effect1_foregroundBlur_1_644"/>
</filter>
<filter id="filter1_f_1_644" x="217.76" y="-97.2401" width="1740.48" height="1740.48" filterUnits="userSpaceOnUse" color-interpolation-filters="sRGB">
<feFlood flood-opacity="0" result="BackgroundImageFix"/>
<feBlend mode="normal" in="SourceGraphic" in2="BackgroundImageFix" result="shape"/>
<feGaussianBlur stdDeviation="213.12" result="effect1_foregroundBlur_1_644"/>
</filter>
<filter id="filter2_f_1_644" x="888" y="421.5" width="800" height="800" filterUnits="userSpaceOnUse" color-interpolation-filters="sRGB">
<feFlood flood-opacity="0" result="BackgroundImageFix"/>
<feBlend mode="normal" in="SourceGraphic" in2="BackgroundImageFix" result="shape"/>
<feGaussianBlur stdDeviation="100" result="effect1_foregroundBlur_1_644"/>
</filter>
<linearGradient id="paint0_linear_1_644" x1="1088" y1="0" x2="1088" y2="1243" gradientUnits="userSpaceOnUse">
<stop stop-color="#082A2D"/>
<stop offset="0.5" stop-color="#0A3235"/>
<stop offset="1" stop-color="#031415"/>
</linearGradient>
<clipPath id="clip0_1_644">
<rect width="2176" height="1243" fill="white"/>
</clipPath>
<clipPath id="clip1_1_644">
<rect width="2176" height="1243" fill="white"/>
</clipPath>
</defs>
</svg>
