<svg width="64" height="64" viewBox="0 0 64 64" fill="none" xmlns="http://www.w3.org/2000/svg">
<path d="M50.2204 29.9688L52.3721 27.4429L51.4366 26.7568L52.9335 25.3846L51.7796 24.5115L53.2765 23.3888L52.3098 22.6404L53.869 15.0312L51.499 7.9834M51.499 7.9834L36.2807 13.6279H23.5884L8.37006 7.9834L6 15.0312L7.59044 22.6404L6.59252 23.3888L8.12058 24.5115L6.96674 25.3846L8.46362 26.7568L7.52807 27.4429L9.67983 29.9688L6.40541 40.0728L9.43035 50.395L20.0645 47.4636L22.1227 49.1476L26.3326 52.0167H33.5364L37.7464 49.1476L39.8046 47.4636L50.4699 50.395L53.526 40.0728L50.2204 29.9688" fill="#F5841F"/>
<path d="M51.499 7.9834L32.8192 21.736L36.2807 13.6279L51.499 7.9834Z" fill="#E27625"/>
<path d="M8.37006 7.9834L26.894 21.8607L23.5884 13.6279L8.37006 7.9834Z" fill="#E27625"/>
<path d="M44.7942 39.8857L39.8046 47.4325L50.4698 50.3639L53.526 40.0417L44.7942 39.8857Z" fill="#E27625"/>
<path d="M6.4054 40.0417L9.43034 50.3639L20.0644 47.4325L15.106 39.8857L6.4054 40.0417Z" fill="#E27625"/>
<path d="M19.5031 27.1L16.5405 31.5595L27.0811 32.0273L26.738 20.7383L19.5031 27.1Z" fill="#E27625"/>
<path d="M40.3971 27.0998L33.0374 20.6133L32.8192 32.027L43.3597 31.5592L40.3971 27.0998Z" fill="#E27625"/>
<path d="M20.0645 47.4321L26.4574 44.3759L20.9376 40.1348L20.0645 47.4321Z" fill="#E27625"/>
<path d="M33.4428 44.3759L39.8046 47.4321L38.9314 40.1348L33.4428 44.3759Z" fill="#E27625"/>
<path d="M39.8046 47.4321L33.4428 44.376L33.973 48.4924L33.9106 50.2388L39.8046 47.4321Z" fill="#D7C1B3"/>
<path d="M20.0645 47.4321L25.9896 50.2388L25.9584 48.4924L26.4574 44.376L20.0645 47.4321Z" fill="#D7C1B3"/>
<path d="M26.0831 37.3907L20.8129 35.8626L24.5551 34.1475L26.0831 37.3907Z" fill="#2F343B"/>
<path d="M33.7859 37.3907L35.3451 34.1475L39.0873 35.8626L33.7859 37.3907Z" fill="#2F343B"/>
<path d="M20.0644 47.4325L21 39.8857L15.106 40.0417L20.0644 47.4325Z" fill="#CC6228"/>
<path d="M38.9002 39.8857L39.8046 47.4325L44.7942 40.0417L38.9002 39.8857Z" fill="#CC6228"/>
<path d="M43.3597 31.5596L32.8192 32.0273L33.7859 37.3912L35.3451 34.1479L39.0873 35.8631L43.3597 31.5596Z" fill="#CC6228"/>
<path d="M20.8129 35.8631L24.5551 34.1479L26.0831 37.3912L27.0811 32.0273L16.5405 31.5596L20.8129 35.8631Z" fill="#CC6228"/>
<path d="M16.5405 31.5596L20.9376 40.1355L20.8129 35.8631L16.5405 31.5596Z" fill="#E27625"/>
<path d="M39.0873 35.8631L38.9314 40.1355L43.3597 31.5596L39.0873 35.8631Z" fill="#E27625"/>
<path d="M27.0811 32.0273L26.0831 37.3912L27.3305 43.7529L27.6112 35.3953L27.0811 32.0273Z" fill="#E27625"/>
<path d="M32.8191 32.0273L32.289 35.3641L32.5385 43.7529L33.7859 37.3912L32.8191 32.0273Z" fill="#E27625"/>
<path d="M33.7859 37.3913L32.5385 43.7531L33.4428 44.3768L38.9314 40.1356L39.0873 35.8633L33.7859 37.3913Z" fill="#F5841F"/>
<path d="M20.8129 35.8633L20.9376 40.1356L26.4574 44.3768L27.3305 43.7531L26.0831 37.3913L20.8129 35.8633Z" fill="#F5841F"/>
<path d="M33.9106 50.2393L33.973 48.4929L33.474 48.0875H26.395L25.9584 48.4929L25.9896 50.2393L20.0645 47.4326L22.1227 49.1166L26.3326 52.0168H33.5364L37.7464 49.1166L39.8046 47.4326L33.9106 50.2393Z" fill="#C0AD9E"/>
<path d="M33.4428 44.3766L32.5385 43.7529H27.3306L26.4574 44.3766L25.9584 48.4931L26.395 48.0876H33.474L33.973 48.4931L33.4428 44.3766Z" fill="#2F343B"/>
<path d="M52.3098 22.6404L53.869 15.0312L51.4989 7.9834L33.4428 21.2682L40.3971 27.0998L50.2204 29.9688L52.3721 27.4429L51.4366 26.7568L52.9335 25.4158L51.7796 24.5115L53.2765 23.3888L52.3098 22.6404Z" fill="#763E1A"/>
<path d="M6 15.0312L7.59044 22.6404L6.59252 23.3888L8.0894 24.5427L6.93555 25.4158L8.43243 26.7568L7.49688 27.4429L9.67983 29.9688L19.5031 27.0998L26.4574 21.2682L8.37006 7.9834L6 15.0312Z" fill="#763E1A"/>
<path d="M50.2204 29.9686L40.3971 27.0996L43.3597 31.5591L38.9314 40.135L44.7942 40.0414H53.526L50.2204 29.9686Z" fill="#F5841F"/>
<path d="M19.5031 27.0996L9.67982 29.9686L6.4054 40.0414H15.106L20.9376 40.135L16.5405 31.5591L19.5031 27.0996Z" fill="#F5841F"/>
<path d="M32.8191 32.0271L33.4428 21.2683L36.2807 13.6279H23.5884L26.4574 21.2683L27.0811 32.0271L27.3306 35.3951V43.7527H32.5385L32.5697 35.3951L32.8191 32.0271Z" fill="#F5841F"/>
</svg>
