<svg width="2176" height="1788" viewBox="0 0 2176 1788" fill="none" xmlns="http://www.w3.org/2000/svg">
<g clip-path="url(#clip0_1_796)">
<rect width="2176" height="1787.5" fill="url(#paint0_linear_1_796)"/>
<g opacity="0.25">
<line x1="108.565" y1="-7.90039" x2="108.565" y2="1995" stroke="url(#paint1_linear_1_796)" stroke-width="1.20657"/>
<line x1="248.527" y1="-7.90039" x2="248.527" y2="1995" stroke="url(#paint2_linear_1_796)" stroke-width="1.20657"/>
<line x1="388.489" y1="-7.90039" x2="388.488" y2="1995" stroke="url(#paint3_linear_1_796)" stroke-width="1.20657"/>
<line x1="528.45" y1="-7.90039" x2="528.45" y2="1995" stroke="url(#paint4_linear_1_796)" stroke-width="1.20657"/>
<line x1="668.412" y1="-7.90039" x2="668.412" y2="1995" stroke="url(#paint5_linear_1_796)" stroke-width="1.20657"/>
<line x1="808.374" y1="-7.90039" x2="808.374" y2="1995" stroke="url(#paint6_linear_1_796)" stroke-width="1.20657"/>
<line x1="948.335" y1="-7.90039" x2="948.335" y2="1995" stroke="url(#paint7_linear_1_796)" stroke-width="1.20657"/>
<line x1="1088.3" y1="-7.90039" x2="1088.3" y2="1995" stroke="url(#paint8_linear_1_796)" stroke-width="1.20657"/>
<line x1="1228.26" y1="-7.90039" x2="1228.26" y2="1995" stroke="url(#paint9_linear_1_796)" stroke-width="1.20657"/>
<line x1="1368.22" y1="-7.90039" x2="1368.22" y2="1995" stroke="url(#paint10_linear_1_796)" stroke-width="1.20657"/>
<line x1="1508.18" y1="-7.90039" x2="1508.18" y2="1995" stroke="url(#paint11_linear_1_796)" stroke-width="1.20657"/>
<line x1="1648.14" y1="-7.90039" x2="1648.14" y2="1995" stroke="url(#paint12_linear_1_796)" stroke-width="1.20657"/>
<line x1="1788.11" y1="-7.90039" x2="1788.11" y2="1995" stroke="url(#paint13_linear_1_796)" stroke-width="1.20657"/>
<line x1="1928.07" y1="-7.90039" x2="1928.07" y2="1995" stroke="url(#paint14_linear_1_796)" stroke-width="1.20657"/>
<line x1="2068.03" y1="-7.90039" x2="2068.03" y2="1995" stroke="url(#paint15_linear_1_796)" stroke-width="1.20657"/>
<line x1="2207.39" y1="127.839" x2="-32" y2="127.839" stroke="url(#paint16_linear_1_796)" stroke-width="1.20657"/>
<line x1="2207.39" y1="262.973" x2="-32" y2="262.974" stroke="url(#paint17_linear_1_796)" stroke-width="1.20657"/>
<line x1="2207.39" y1="398.109" x2="-32" y2="398.109" stroke="url(#paint18_linear_1_796)" stroke-width="1.20657"/>
<line x1="2207.39" y1="533.245" x2="-32" y2="533.245" stroke="url(#paint19_linear_1_796)" stroke-width="1.20657"/>
<line x1="2207.39" y1="668.381" x2="-32" y2="668.381" stroke="url(#paint20_linear_1_796)" stroke-width="1.20657"/>
<line x1="2207.39" y1="803.515" x2="-32" y2="803.516" stroke="url(#paint21_linear_1_796)" stroke-width="1.20657"/>
<line x1="2207.39" y1="938.651" x2="-32" y2="938.651" stroke="url(#paint22_linear_1_796)" stroke-width="1.20657"/>
<line x1="2207.39" y1="1073.79" x2="-32" y2="1073.79" stroke="url(#paint23_linear_1_796)" stroke-width="1.20657"/>
<line x1="2207.39" y1="1208.92" x2="-32" y2="1208.92" stroke="url(#paint24_linear_1_796)" stroke-width="1.20657"/>
<line x1="2207.39" y1="1344.06" x2="-32" y2="1344.06" stroke="url(#paint25_linear_1_796)" stroke-width="1.20657"/>
<line x1="2207.39" y1="1479.19" x2="-32" y2="1479.19" stroke="url(#paint26_linear_1_796)" stroke-width="1.20657"/>
<line x1="2207.39" y1="1614.33" x2="-32" y2="1614.33" stroke="url(#paint27_linear_1_796)" stroke-width="1.20657"/>
<line x1="2207.39" y1="1749.46" x2="-32" y2="1749.46" stroke="url(#paint28_linear_1_796)" stroke-width="1.20657"/>
</g>
<g filter="url(#filter0_f_1_796)">
<path d="M0 300C0 134.315 134.315 0 300 0C465.685 0 600 134.315 600 300C600 465.685 465.685 600 300 600C134.315 600 0 465.685 0 300Z" fill="#2D5F5D" fill-opacity="0.2"/>
</g>
<g filter="url(#filter1_f_1_796)">
<path d="M1476 1267.5C1476 1074.2 1632.7 917.5 1826 917.5C2019.3 917.5 2176 1074.2 2176 1267.5C2176 1460.8 2019.3 1617.5 1826 1617.5C1632.7 1617.5 1476 1460.8 1476 1267.5Z" fill="#3A7875" fill-opacity="0.2"/>
</g>
</g>
<defs>
<filter id="filter0_f_1_796" x="-300" y="-300" width="1200" height="1200" filterUnits="userSpaceOnUse" color-interpolation-filters="sRGB">
<feFlood flood-opacity="0" result="BackgroundImageFix"/>
<feBlend mode="normal" in="SourceGraphic" in2="BackgroundImageFix" result="shape"/>
<feGaussianBlur stdDeviation="150" result="effect1_foregroundBlur_1_796"/>
</filter>
<filter id="filter1_f_1_796" x="1176" y="617.5" width="1300" height="1300" filterUnits="userSpaceOnUse" color-interpolation-filters="sRGB">
<feFlood flood-opacity="0" result="BackgroundImageFix"/>
<feBlend mode="normal" in="SourceGraphic" in2="BackgroundImageFix" result="shape"/>
<feGaussianBlur stdDeviation="150" result="effect1_foregroundBlur_1_796"/>
</filter>
<linearGradient id="paint0_linear_1_796" x1="1088" y1="0" x2="1088" y2="1787.5" gradientUnits="userSpaceOnUse">
<stop/>
<stop offset="0.5" stop-color="#082A2D"/>
<stop offset="1"/>
</linearGradient>
<linearGradient id="paint1_linear_1_796" x1="107.962" y1="993.55" x2="106.962" y2="993.55" gradientUnits="userSpaceOnUse">
<stop stop-color="#010303"/>
<stop offset="1" stop-color="#326967"/>
</linearGradient>
<linearGradient id="paint2_linear_1_796" x1="247.923" y1="993.55" x2="246.923" y2="993.55" gradientUnits="userSpaceOnUse">
<stop stop-color="#010303"/>
<stop offset="1" stop-color="#326967"/>
</linearGradient>
<linearGradient id="paint3_linear_1_796" x1="387.885" y1="993.55" x2="386.885" y2="993.55" gradientUnits="userSpaceOnUse">
<stop stop-color="#010303"/>
<stop offset="1" stop-color="#326967"/>
</linearGradient>
<linearGradient id="paint4_linear_1_796" x1="527.847" y1="993.55" x2="526.847" y2="993.55" gradientUnits="userSpaceOnUse">
<stop stop-color="#010303"/>
<stop offset="1" stop-color="#326967"/>
</linearGradient>
<linearGradient id="paint5_linear_1_796" x1="667.809" y1="993.55" x2="666.809" y2="993.55" gradientUnits="userSpaceOnUse">
<stop stop-color="#010303"/>
<stop offset="1" stop-color="#326967"/>
</linearGradient>
<linearGradient id="paint6_linear_1_796" x1="807.77" y1="993.55" x2="806.77" y2="993.55" gradientUnits="userSpaceOnUse">
<stop stop-color="#010303"/>
<stop offset="1" stop-color="#326967"/>
</linearGradient>
<linearGradient id="paint7_linear_1_796" x1="947.732" y1="993.55" x2="946.732" y2="993.55" gradientUnits="userSpaceOnUse">
<stop stop-color="#010303"/>
<stop offset="1" stop-color="#326967"/>
</linearGradient>
<linearGradient id="paint8_linear_1_796" x1="1087.69" y1="993.55" x2="1086.69" y2="993.55" gradientUnits="userSpaceOnUse">
<stop stop-color="#010303"/>
<stop offset="1" stop-color="#326967"/>
</linearGradient>
<linearGradient id="paint9_linear_1_796" x1="1227.66" y1="993.55" x2="1226.66" y2="993.55" gradientUnits="userSpaceOnUse">
<stop stop-color="#010303"/>
<stop offset="1" stop-color="#326967"/>
</linearGradient>
<linearGradient id="paint10_linear_1_796" x1="1367.62" y1="993.55" x2="1366.62" y2="993.55" gradientUnits="userSpaceOnUse">
<stop stop-color="#010303"/>
<stop offset="1" stop-color="#326967"/>
</linearGradient>
<linearGradient id="paint11_linear_1_796" x1="1507.58" y1="993.55" x2="1506.58" y2="993.55" gradientUnits="userSpaceOnUse">
<stop stop-color="#010303"/>
<stop offset="1" stop-color="#326967"/>
</linearGradient>
<linearGradient id="paint12_linear_1_796" x1="1647.54" y1="993.55" x2="1646.54" y2="993.55" gradientUnits="userSpaceOnUse">
<stop stop-color="#010303"/>
<stop offset="1" stop-color="#326967"/>
</linearGradient>
<linearGradient id="paint13_linear_1_796" x1="1787.5" y1="993.55" x2="1786.5" y2="993.55" gradientUnits="userSpaceOnUse">
<stop stop-color="#010303"/>
<stop offset="1" stop-color="#326967"/>
</linearGradient>
<linearGradient id="paint14_linear_1_796" x1="1927.46" y1="993.55" x2="1926.46" y2="993.55" gradientUnits="userSpaceOnUse">
<stop stop-color="#010303"/>
<stop offset="1" stop-color="#326967"/>
</linearGradient>
<linearGradient id="paint15_linear_1_796" x1="2067.43" y1="993.55" x2="2066.43" y2="993.55" gradientUnits="userSpaceOnUse">
<stop stop-color="#010303"/>
<stop offset="1" stop-color="#326967"/>
</linearGradient>
<linearGradient id="paint16_linear_1_796" x1="1087.69" y1="127.235" x2="1087.69" y2="126.235" gradientUnits="userSpaceOnUse">
<stop stop-color="#010303"/>
<stop offset="1" stop-color="#326967"/>
</linearGradient>
<linearGradient id="paint17_linear_1_796" x1="1087.69" y1="262.37" x2="1087.69" y2="261.37" gradientUnits="userSpaceOnUse">
<stop stop-color="#010303"/>
<stop offset="1" stop-color="#326967"/>
</linearGradient>
<linearGradient id="paint18_linear_1_796" x1="1087.69" y1="397.506" x2="1087.69" y2="396.506" gradientUnits="userSpaceOnUse">
<stop stop-color="#010303"/>
<stop offset="1" stop-color="#326967"/>
</linearGradient>
<linearGradient id="paint19_linear_1_796" x1="1087.69" y1="532.642" x2="1087.69" y2="531.642" gradientUnits="userSpaceOnUse">
<stop stop-color="#010303"/>
<stop offset="1" stop-color="#326967"/>
</linearGradient>
<linearGradient id="paint20_linear_1_796" x1="1087.69" y1="667.777" x2="1087.69" y2="666.777" gradientUnits="userSpaceOnUse">
<stop stop-color="#010303"/>
<stop offset="1" stop-color="#326967"/>
</linearGradient>
<linearGradient id="paint21_linear_1_796" x1="1087.69" y1="802.912" x2="1087.69" y2="801.912" gradientUnits="userSpaceOnUse">
<stop stop-color="#010303"/>
<stop offset="1" stop-color="#326967"/>
</linearGradient>
<linearGradient id="paint22_linear_1_796" x1="1087.69" y1="938.048" x2="1087.69" y2="937.048" gradientUnits="userSpaceOnUse">
<stop stop-color="#010303"/>
<stop offset="1" stop-color="#326967"/>
</linearGradient>
<linearGradient id="paint23_linear_1_796" x1="1087.69" y1="1073.18" x2="1087.69" y2="1072.18" gradientUnits="userSpaceOnUse">
<stop stop-color="#010303"/>
<stop offset="1" stop-color="#326967"/>
</linearGradient>
<linearGradient id="paint24_linear_1_796" x1="1087.69" y1="1208.32" x2="1087.69" y2="1207.32" gradientUnits="userSpaceOnUse">
<stop stop-color="#010303"/>
<stop offset="1" stop-color="#326967"/>
</linearGradient>
<linearGradient id="paint25_linear_1_796" x1="1087.69" y1="1343.45" x2="1087.69" y2="1342.45" gradientUnits="userSpaceOnUse">
<stop stop-color="#010303"/>
<stop offset="1" stop-color="#326967"/>
</linearGradient>
<linearGradient id="paint26_linear_1_796" x1="1087.69" y1="1478.59" x2="1087.69" y2="1477.59" gradientUnits="userSpaceOnUse">
<stop stop-color="#010303"/>
<stop offset="1" stop-color="#326967"/>
</linearGradient>
<linearGradient id="paint27_linear_1_796" x1="1087.69" y1="1613.72" x2="1087.69" y2="1612.72" gradientUnits="userSpaceOnUse">
<stop stop-color="#010303"/>
<stop offset="1" stop-color="#326967"/>
</linearGradient>
<linearGradient id="paint28_linear_1_796" x1="1087.69" y1="1748.86" x2="1087.69" y2="1747.86" gradientUnits="userSpaceOnUse">
<stop stop-color="#010303"/>
<stop offset="1" stop-color="#326967"/>
</linearGradient>
<clipPath id="clip0_1_796">
<rect width="2176" height="1787.5" fill="white"/>
</clipPath>
</defs>
</svg>
