<svg width="16" height="16" viewBox="0 0 16 16" fill="none" xmlns="http://www.w3.org/2000/svg">
<path d="M10 1.33301H4.00002C3.6464 1.33301 3.30726 1.47348 3.05721 1.72353C2.80716 1.97358 2.66669 2.31272 2.66669 2.66634V13.333C2.66669 13.6866 2.80716 14.0258 3.05721 14.2758C3.30726 14.5259 3.6464 14.6663 4.00002 14.6663H12C12.3536 14.6663 12.6928 14.5259 12.9428 14.2758C13.1929 14.0258 13.3334 13.6866 13.3334 13.333V4.66634L10 1.33301Z" stroke="#2D5F5D" stroke-width="1.33333" stroke-linecap="round" stroke-linejoin="round"/>
<path d="M9.33331 1.33301V3.99967C9.33331 4.3533 9.47379 4.69244 9.72384 4.94248C9.97389 5.19253 10.313 5.33301 10.6666 5.33301H13.3333" stroke="#2D5F5D" stroke-width="1.33333" stroke-linecap="round" stroke-linejoin="round"/>
<path d="M6.66665 6H5.33331" stroke="#2D5F5D" stroke-width="1.33333" stroke-linecap="round" stroke-linejoin="round"/>
<path d="M10.6666 8.66699H5.33331" stroke="#2D5F5D" stroke-width="1.33333" stroke-linecap="round" stroke-linejoin="round"/>
<path d="M10.6666 11.333H5.33331" stroke="#2D5F5D" stroke-width="1.33333" stroke-linecap="round" stroke-linejoin="round"/>
</svg>
