<svg width="62" height="62" viewBox="0 0 62 62" fill="none" xmlns="http://www.w3.org/2000/svg">
<g clip-path="url(#clip0_1_1259)">
<path d="M37.8276 23.4395H24.764C24.2095 23.4395 23.7549 23.894 23.7549 24.4486V37.5122C23.7549 38.0667 24.2095 38.5213 24.764 38.5213H37.8276C38.3822 38.5213 38.8368 38.0667 38.8368 37.5122V24.4486C38.8368 23.894 38.3822 23.4395 37.8276 23.4395Z" fill="black"/>
<path d="M22.7489 8.40918H9.68526C9.13073 8.40918 8.67615 8.86377 8.67615 9.41829V22.4819C8.67615 23.0365 9.13073 23.4911 9.68526 23.4911H22.7489C23.3034 23.4911 23.758 23.0365 23.758 22.4819V9.41829C23.7548 8.86377 23.3034 8.40918 22.7489 8.40918Z" fill="black"/>
<path d="M52.8579 8.40918H39.7943C39.2397 8.40918 38.7852 8.86377 38.7852 9.41829V22.4819C38.7852 23.0365 39.2397 23.4911 39.7943 23.4911H52.8579C53.4124 23.4911 53.867 23.0365 53.867 22.4819V9.41829C53.867 8.86377 53.4124 8.40918 52.8579 8.40918Z" fill="black"/>
<path d="M22.7489 38.4697H9.68526C9.13073 38.4697 8.67615 38.9243 8.67615 39.4788V52.5425C8.67615 53.097 9.13073 53.5516 9.68526 53.5516H22.7489C23.3034 53.5516 23.758 53.097 23.758 52.5425V39.4788C23.7548 38.9243 23.3034 38.4697 22.7489 38.4697Z" fill="black"/>
<path d="M52.8579 38.4697H39.7943C39.2397 38.4697 38.7852 38.9243 38.7852 39.4788V52.5425C38.7852 53.097 39.2397 53.5516 39.7943 53.5516H52.8579C53.4124 53.5516 53.867 53.097 53.867 52.5425V39.4788C53.867 38.9243 53.4124 38.4697 52.8579 38.4697Z" fill="black"/>
</g>
<defs>
<clipPath id="clip0_1_1259">
<rect width="62" height="62" fill="white"/>
</clipPath>
</defs>
</svg>
