<svg width="64" height="64" viewBox="0 0 64 64" fill="none" xmlns="http://www.w3.org/2000/svg">
<g clip-path="url(#clip0_1_1276)">
<path d="M9.08816 56.882C16.7323 56.882 22.4769 50.2341 25.9052 44.9809C25.4882 46.1432 25.2565 47.3053 25.2565 48.421C25.2565 51.4893 27.0171 53.6742 30.4916 53.6742C35.2634 53.6742 40.3594 49.4903 43.0001 44.9809C42.8148 45.6318 42.7222 46.2362 42.7222 46.794C42.7222 48.9324 43.9266 50.2806 46.3821 50.2806C54.1189 50.2806 61.9019 36.5665 61.9019 24.5726C61.9019 15.2284 57.1764 7 45.3166 7C24.469 7 2 32.4756 2 48.9324C2 55.3943 5.47459 56.882 9.08816 56.882ZM38.1357 23.5499C38.1357 21.2255 39.4329 19.5984 41.3323 19.5984C43.1854 19.5984 44.4826 21.2255 44.4826 23.5499C44.4826 25.8743 43.1854 27.5478 41.3323 27.5478C39.4329 27.5478 38.1357 25.8743 38.1357 23.5499ZM48.0499 23.5499C48.0499 21.2255 49.3471 19.5984 51.2464 19.5984C53.0996 19.5984 54.3968 21.2255 54.3968 23.5499C54.3968 25.8743 53.0996 27.5478 51.2464 27.5478C49.3471 27.5478 48.0499 25.8743 48.0499 23.5499Z" fill="#AB9FF2"/>
</g>
<defs>
<clipPath id="clip0_1_1276">
<rect width="60" height="60" fill="white" transform="translate(2 2)"/>
</clipPath>
</defs>
</svg>
