<svg width="64" height="66" viewBox="0 0 64 66" fill="none" xmlns="http://www.w3.org/2000/svg">
<path d="M40.0127 12.7042L50.2243 22.7651C51.0935 23.6197 51.5214 24.4843 51.5079 25.3557C51.4945 26.2271 51.1205 27.0213 50.3894 27.7419C49.6246 28.496 48.7992 28.878 47.9165 28.8948C47.0338 28.9082 46.1579 28.4859 45.2887 27.6313L34.8446 17.3425C33.6587 16.1729 32.5132 15.3451 31.4116 14.8592C30.3099 14.3732 29.1509 14.2961 27.9381 14.6313C26.7218 14.963 25.418 15.8177 24.0199 17.1917C22.0928 19.092 21.173 20.8749 21.2674 22.5405C21.3617 24.2062 22.3185 25.9355 24.1344 27.7218L34.6627 38.0977C35.542 38.9623 35.9733 39.827 35.9598 40.685C35.9463 41.5463 35.569 42.3405 34.8244 43.0745C34.0832 43.8051 33.2645 44.1872 32.3751 44.2173C31.4857 44.2475 30.5996 43.8286 29.7237 42.9639L19.5121 32.903C17.8511 31.2676 16.6518 29.7192 15.9139 28.258C15.1761 26.7968 14.8999 25.1446 15.0919 23.3013C15.2637 21.7228 15.7724 20.1946 16.6214 18.7133C17.4671 17.2319 18.6799 15.7171 20.2533 14.1654C22.1265 12.3188 23.9154 10.9045 25.6202 9.91921C27.3215 8.9339 28.969 8.38762 30.5592 8.27368C32.1528 8.15973 33.7227 8.47476 35.2759 9.21877C36.829 9.96278 38.4057 11.1224 40.0094 12.7042H40.0127Z" fill="#E27625"/>
<path d="M23.9929 53.2988L13.7847 43.2379C12.9155 42.38 12.4876 41.5186 12.5011 40.6473C12.5146 39.7759 12.8885 38.9816 13.6196 38.2611C14.3844 37.507 15.2098 37.125 16.0925 37.1082C16.9752 37.0948 17.8512 37.5137 18.7204 38.3717L29.161 48.6605C30.3503 49.8301 31.4924 50.6579 32.5941 51.1438C33.6958 51.6298 34.8547 51.7035 36.071 51.3717C37.2872 51.0399 38.591 50.1853 39.9892 48.8079C41.9163 46.9077 42.836 45.1247 42.7417 43.4591C42.6473 41.7935 41.6905 40.0641 39.8746 38.2745L34.2652 32.795C33.3858 31.9303 32.9546 31.0657 32.9681 30.2077C32.9815 29.3464 33.3589 28.5521 34.1034 27.8182C34.8446 27.0876 35.6633 26.7055 36.5527 26.6753C37.4422 26.6452 38.3282 27.0641 39.2042 27.9288L44.4936 33.0933C46.1545 34.7287 47.3539 36.2771 48.0917 37.7383C48.8296 39.1995 49.1058 40.8517 48.9138 42.695C48.742 44.2735 48.2332 45.8017 47.3842 47.283C46.5386 48.7643 45.3257 50.2792 43.7524 51.8309C41.8792 53.6775 40.0902 55.0918 38.3855 56.0771C36.6808 57.0624 35.0333 57.612 33.4397 57.726C31.8462 57.8399 30.2762 57.5249 28.7231 56.7809C27.1699 56.0369 25.5932 54.8773 23.9896 53.2954L23.9929 53.2988Z" fill="#E27625"/>
<path d="M30.3605 27.3391C32.4314 27.3391 34.1102 25.6691 34.1102 23.609C34.1102 21.5489 32.4314 19.8789 30.3605 19.8789C28.2895 19.8789 26.6107 21.5489 26.6107 23.609C26.6107 25.6691 28.2895 27.3391 30.3605 27.3391Z" fill="#E27625"/>
</svg>
