<svg width="29" height="29" viewBox="0 0 29 29" fill="none" xmlns="http://www.w3.org/2000/svg">
<g clip-path="url(#clip0_1_3613)">
<mask id="mask0_1_3613" style="mask-type:luminance" maskUnits="userSpaceOnUse" x="0" y="0" width="29" height="29">
<path d="M0 0H28.75V28.75H0V0Z" fill="white"/>
</mask>
<g mask="url(#mask0_1_3613)">
<path d="M14.375 28.7143C22.2942 28.7143 28.714 22.2944 28.714 14.3752C28.714 6.45595 22.2942 0.0361328 14.375 0.0361328C6.45571 0.0361328 0.0358887 6.45595 0.0358887 14.3752C0.0358887 22.2944 6.45571 28.7143 14.375 28.7143Z" fill="#3396FF" stroke="#66B1FF" stroke-width="0.071875"/>
<path d="M8.80589 10.707C11.8815 7.7077 16.8682 7.7077 19.9438 10.707L20.3139 11.0679C20.4678 11.2179 20.4678 11.461 20.3139 11.6109L19.0477 12.8458C18.9708 12.9207 18.8462 12.9207 18.7693 12.8458L18.2599 12.349C16.1142 10.2567 12.6355 10.2567 10.4898 12.349L9.94425 12.881C9.86734 12.9559 9.74271 12.9559 9.6658 12.881L8.39958 11.6462C8.24577 11.4962 8.24577 11.2531 8.39958 11.1031L8.80589 10.707ZM22.5625 13.2606L23.6895 14.3596C23.8433 14.5095 23.8433 14.7527 23.6895 14.9026L18.6079 19.858C18.4542 20.008 18.2048 20.008 18.051 19.858L14.4445 16.341C14.406 16.3035 14.3437 16.3035 14.3053 16.341L10.6987 19.858C10.545 20.008 10.2956 20.008 10.1418 19.858L5.06016 14.9025C4.90638 14.7526 4.90638 14.5094 5.06016 14.3595L6.18713 13.2605C6.34091 13.1106 6.59024 13.1106 6.74402 13.2605L10.3506 16.7775C10.3891 16.8151 10.4514 16.8151 10.4899 16.7775L14.0963 13.2605C14.2501 13.1105 14.4994 13.1105 14.6532 13.2605L18.2598 16.7775C18.2983 16.8151 18.3606 16.8151 18.399 16.7775L22.0057 13.2606C22.1594 13.1106 22.4087 13.1106 22.5625 13.2606Z" fill="white"/>
</g>
</g>
<defs>
<clipPath id="clip0_1_3613">
<rect width="28.75" height="28.75" fill="white"/>
</clipPath>
</defs>
</svg>
