<svg width="16" height="16" viewBox="0 0 16 16" fill="none" xmlns="http://www.w3.org/2000/svg">
<g clip-path="url(#clip0_1_1620)">
<path d="M9.79999 4.20018C9.67783 4.3248 9.60941 4.49235 9.60941 4.66685C9.60941 4.84135 9.67783 5.0089 9.79999 5.13352L10.8667 6.20018C10.9913 6.32233 11.1588 6.39075 11.3333 6.39075C11.5078 6.39075 11.6754 6.32233 11.8 6.20018L13.8707 4.13018C14.084 3.91552 14.446 3.98352 14.526 4.27552C14.7274 5.0081 14.716 5.78289 14.4932 6.50924C14.2703 7.23559 13.8452 7.88345 13.2676 8.37701C12.69 8.87057 11.9837 9.18941 11.2315 9.29623C10.4793 9.40305 9.71218 9.29342 9.01999 8.98018L3.74665 14.2535C3.48144 14.5186 3.12176 14.6676 2.74675 14.6675C2.37174 14.6674 2.01211 14.5184 1.74699 14.2532C1.48186 13.988 1.33295 13.6283 1.33301 13.2533C1.33307 12.8783 1.4821 12.5186 1.74732 12.2535L7.02065 6.98018C6.70741 6.28799 6.59779 5.5209 6.70461 4.76868C6.81143 4.01646 7.13027 3.31022 7.62383 2.73259C8.11738 2.15497 8.76524 1.72986 9.49159 1.507C10.2179 1.28414 10.9927 1.27276 11.7253 1.47418C12.0173 1.55418 12.0853 1.91552 11.8713 2.13018L9.79999 4.20018Z" stroke="currentColor" stroke-width="1.33333" stroke-linecap="round" stroke-linejoin="round"/>
</g>
<defs>
<clipPath id="clip0_1_1620">
<rect width="16" height="16" fill="white"/>
</clipPath>
</defs>
</svg>
