<svg width="64" height="64" viewBox="0 0 64 64" fill="none" xmlns="http://www.w3.org/2000/svg">
<g clip-path="url(#clip0_1_1234)">
<path d="M52.1848 51.5311V44.1437C52.1848 43.8507 52.0684 43.5714 51.8609 43.3638L20.4285 11.9314C20.221 11.7238 19.9416 11.6074 19.6487 11.6074H12.2615C11.8968 11.6074 11.6 11.9042 11.6 12.2689V19.1324C11.6 19.4253 11.7164 19.7046 11.9239 19.9122L23.2065 31.1947C23.4645 31.4528 23.4645 31.8718 23.2065 32.1298L11.794 43.5423C11.6698 43.6664 11.6 43.8352 11.6 44.0098V51.5311C11.6 51.8954 11.8968 52.1926 12.2615 52.1926H24.6052C24.9699 52.1926 25.2666 51.8954 25.2666 51.5311V47.1002C25.2666 46.9255 25.3365 46.7568 25.4607 46.6326L31.583 40.5102C31.841 40.2522 32.26 40.2522 32.5181 40.5102L43.8782 51.8705C44.0858 52.078 44.3651 52.1945 44.658 52.1945H51.5214C51.8862 52.1945 52.1829 51.8974 52.1829 51.533L52.1848 51.5311Z" fill="black"/>
<path d="M35.7189 21.3905H41.9015C42.268 21.3905 42.5668 21.6893 42.5668 22.0559V28.2384C42.5668 28.832 43.2846 29.1289 43.7036 28.7079L52.1849 20.2131C52.3089 20.0889 52.3791 19.9201 52.3791 19.7436V12.304C52.3791 11.9374 52.0819 11.6386 51.7135 11.6386L44.1633 11.6289C43.9869 11.6289 43.8182 11.6987 43.6919 11.8229L35.2476 20.2538C34.8286 20.6728 35.1253 21.3905 35.717 21.3905H35.7189Z" fill="#EE7A30"/>
</g>
<defs>
<clipPath id="clip0_1_1234">
<rect width="40.8" height="40.8" fill="white" transform="translate(11.6 11.5996)"/>
</clipPath>
</defs>
</svg>
