<svg width="128" height="46" viewBox="0 0 128 46" fill="none" xmlns="http://www.w3.org/2000/svg">
<g clip-path="url(#clip0_1_688)">
<path d="M44.6263 25.7525C44.3214 22.5915 41.5936 21.5314 38.1471 21.2289V16.8432H35.4774V21.1127C34.7755 21.1127 34.0591 21.1272 33.3451 21.1417V16.8432H30.6779V21.2289C30.0994 21.241 29.5306 21.2507 28.9788 21.2531V21.2386H25.2975V24.0897C25.2975 24.0897 27.27 24.051 27.2362 24.0897C28.318 24.0897 28.669 24.719 28.7731 25.2587V37.2733C28.7247 37.6146 28.5262 38.1568 27.771 38.1568C27.8049 38.1858 25.8299 38.1568 25.8299 38.1568L25.2999 41.3444H28.7731C29.4193 41.3444 30.0559 41.3565 30.6803 41.3589V45.7954H33.3475V41.4073C34.0785 41.4218 34.7876 41.4291 35.4799 41.4267V45.7954H38.1495V41.3661C42.6392 41.1096 45.7808 39.9769 46.1705 35.763C46.4852 32.3697 44.8877 30.8546 42.3415 30.2422C43.8906 29.4532 44.8563 28.0663 44.6312 25.7525H44.6263ZM40.8917 35.2378C40.8917 38.5537 35.216 38.1761 33.408 38.1786V32.302C35.2185 32.302 40.8917 31.7816 40.8917 35.2403V35.2378ZM39.6477 26.9457C39.6477 29.9615 34.9135 29.6105 33.4056 29.6105V24.2809C34.9135 24.2809 39.6477 23.8017 39.6477 26.9457Z" fill="white"/>
<path d="M36.7457 10.6883H36.8014L34.4052 1.14441e-05L32.0091 10.6883H32.0648C32.8175 10.5866 33.6017 10.5309 34.4052 10.5309C35.2088 10.5309 35.993 10.5866 36.7457 10.6883Z" fill="white"/>
<path d="M42.2085 12.6027L46.2577 4.35421L38.1762 10.9496C39.7276 11.3079 41.1048 11.8766 42.2109 12.6027H42.2085Z" fill="white"/>
<path d="M43.121 13.2901C44.1908 14.2171 44.8685 15.3208 45.0113 16.5164L52.4393 11.6612L43.121 13.2901Z" fill="white"/>
<path d="M25.6751 13.3046L16.1631 11.6612L23.7945 16.5915C23.9155 15.374 24.5932 14.2486 25.6751 13.3046Z" fill="white"/>
<path d="M30.5836 10.9618L22.3423 4.35421L26.498 12.6729C27.609 11.9226 29.0055 11.3321 30.5836 10.9618Z" fill="white"/>
<path d="M25.9534 18.869L25.3216 17.337C25.2442 17.1457 25.3337 16.9279 25.525 16.848C25.7162 16.7706 25.934 16.8601 26.0139 17.0514L26.5052 18.2397C26.723 18.0195 26.9602 17.8089 27.2144 17.608L26.4592 15.7783C26.3503 15.5144 26.4762 15.207 26.7424 15.0981C27.0062 14.9892 27.3136 15.1151 27.4225 15.3813L28.0929 17.0054C28.4076 16.8142 28.7416 16.6375 29.095 16.4777L28.4802 14.5245C28.3785 14.1978 28.5601 13.8468 28.8868 13.7427C29.2136 13.6411 29.5645 13.8226 29.6662 14.1494L30.2543 16.0203C30.6028 15.9041 30.9635 15.8049 31.3362 15.7177L31.0627 13.6145C31.0191 13.2756 31.2612 12.961 31.6 12.9174C31.9389 12.8738 32.2535 13.1159 32.2971 13.4547L32.5633 15.4975C32.9627 15.4442 33.3717 15.4079 33.788 15.3886V13.2199C33.788 12.8787 34.0688 12.5979 34.41 12.5979C34.7513 12.5979 35.0321 12.8787 35.0321 13.2199V15.3886C35.4484 15.4079 35.8574 15.4442 36.2568 15.4975L36.523 13.4547C36.5666 13.1159 36.8812 12.8738 37.2201 12.9174C37.5589 12.961 37.801 13.2756 37.7574 13.6145L37.4839 15.7177C37.8542 15.8049 38.2173 15.9041 38.5658 16.0203L39.1539 14.1494C39.2556 13.8226 39.609 13.6387 39.9357 13.7427C40.2624 13.8468 40.4464 14.1978 40.3423 14.5245L39.7275 16.4777C40.0785 16.6399 40.4125 16.8166 40.7296 17.0054L41.4 15.3813C41.5089 15.1175 41.8163 14.9892 42.0801 15.0981C42.3439 15.207 42.4722 15.5144 42.3633 15.7783L41.6082 17.608C41.8623 17.8089 42.0995 18.0195 42.3173 18.2397L42.8086 17.0514C42.8861 16.8601 43.1064 16.7706 43.2976 16.848C43.4888 16.9255 43.5783 17.1457 43.5009 17.337L42.8692 18.869C42.9926 19.0312 43.1064 19.1982 43.2104 19.37L44.4666 17.5524C44.1761 14.1542 39.7881 11.4555 34.4173 11.4555C29.0466 11.4555 24.6778 14.1421 24.3705 17.5306L25.6315 19.3555C25.7331 19.1909 25.8444 19.0264 25.9655 18.869H25.9534Z" fill="white"/>
<path d="M9.23604 41.417H0V21.2531H4.39051V37.7744H9.23604V41.417Z" fill="white"/>
<path d="M20.3261 41.417H16.2284V21.2531H20.3261V41.417Z" fill="white"/>
<path d="M55.3485 37.7743H62.6991V41.417H50.7958V21.2531H63.2194V24.8303H55.3485V29.0901H60.2279V32.5706H55.3485V37.7743Z" fill="white"/>
<path d="M79.5447 33.9381L84.6177 41.4508H79.61L74.8952 34.1656V41.417H70.1465V21.2531H77.1703C79.4479 21.2531 81.268 21.7734 82.6016 22.7827C83.9667 23.8235 84.6177 25.4499 84.6177 27.6283C84.6177 30.0026 83.9667 31.6944 82.6016 32.6698C81.8198 33.287 80.7815 33.7106 79.5447 33.9381ZM74.8928 30.6851H76.4224C77.4947 30.6851 78.3732 30.4576 78.9904 29.9373C79.5761 29.4822 79.869 28.7005 79.869 27.6597C79.869 26.619 79.5761 25.8396 78.9904 25.4161C78.3732 24.961 77.4947 24.7335 76.4224 24.7335H74.8928V30.6851Z" fill="white"/>
<path d="M103.61 21.2531V24.8303H99.9022V41.417H95.122V24.8303H91.4479V21.2531H103.61Z" fill="white"/>
<path d="M123.22 21.2531H128L121.235 33.8389V41.417H117.041V33.8389L110.048 21.2531H115.025L119.188 30.0341L123.22 21.2531Z" fill="white"/>
</g>
<defs>
<clipPath id="clip0_1_688">
<rect width="128" height="45.7954" fill="white"/>
</clipPath>
</defs>
</svg>
